P3 
32 16 255
239 239 239
239 239 239
239 239 239
239 239 239
239 239 239
239 239 239
239 239 239
239 239 239
239 239 239
239 239 239
239 239 239
239 239 239
239 239 239
239 239 239
239 239 239
239 239 239
239 239 239
239 239 239
239 239 239
239 239 239
239 239 239
239 239 239
239 239 239
239 239 239
239 239 239
239 239 239
239 239 239
239 239 239
239 239 239
239 239 239
239 239 239
239 239 239
239 239 239
239 239 239
239 239 239
239 239 239
239 239 239
239 239 239
239 239 239
239 239 239
239 239 239
239 239 239
239 239 239
239 239 239
239 239 239
239 239 239
239 239 239
239 239 239
239 239 239
239 239 239
239 239 239
239 239 239
239 239 239
239 239 239
239 239 239
239 239 239
239 239 239
239 239 239
239 239 239
239 239 239
239 239 239
239 239 239
239 239 239
239 239 239
239 239 239
239 239 239
239 239 239
239 239 239
239 239 239
239 239 239
239 239 239
239 239 239
239 239 239
239 239 239
239 239 239
239 239 239
239 239 239
239 239 239
239 239 239
239 239 239
239 239 239
239 239 239
239 239 239
239 239 239
239 239 239
239 239 239
239 239 239
239 239 239
239 239 239
239 239 239
239 239 239
239 239 239
239 239 239
239 239 239
239 239 239
239 239 239
239 239 239
239 239 239
239 239 239
239 239 239
239 239 239
239 239 239
239 239 239
239 239 239
239 239 239
239 239 239
239 239 239
239 239 239
239 239 239
239 239 239
239 239 239
239 239 239
239 239 239
239 239 239
239 239 239
239 239 239
239 239 239
239 239 239
239 239 239
239 239 239
239 239 239
239 239 239
239 239 239
239 239 239
239 239 239
239 239 239
239 239 239
239 239 239
239 239 239
239 239 239
239 239 239
239 239 239
239 239 239
239 239 239
239 239 239
239 239 239
239 239 239
239 239 239
239 239 239
239 239 239
239 239 239
239 239 239
239 239 239
239 239 239
239 239 239
239 239 239
239 239 239
239 239 239
239 239 239
239 239 239
239 239 239
239 239 239
239 239 239
239 239 239
239 239 239
239 239 239
239 239 239
239 239 239
239 239 239
239 239 239
239 239 239
239 239 239
239 239 239
239 239 239
239 239 239
239 239 239
239 239 239
239 239 239
239 239 239
239 239 239
239 239 239
239 239 239
239 239 239
239 239 239
239 239 239
239 239 239
239 239 239
239 239 239
239 239 239
239 239 239
239 239 239
239 239 239
239 239 239
239 239 239
239 239 239
239 239 239
239 239 239
239 239 239
239 239 239
239 239 239
239 239 239
239 239 239
239 239 239
239 239 239
239 239 239
239 239 239
239 239 239
239 239 239
239 239 239
239 239 239
239 239 239
239 239 239
239 239 239
239 239 239
239 239 239
239 239 239
239 239 239
239 239 239
239 239 239
239 239 239
239 239 239
239 239 239
239 239 239
239 239 239
239 239 239
239 239 239
239 239 239
239 239 239
239 239 239
239 239 239
239 239 239
239 239 239
239 239 239
239 239 239
0 48 207
0 50 205
0 51 204
0 51 204
0 52 203
0 53 202
0 54 201
0 55 200
0 55 200
0 56 199
0 56 199
0 56 199
0 57 198
0 57 198
0 57 198
0 57 198
0 57 198
0 57 198
0 57 198
0 57 198
0 56 199
0 56 199
0 56 199
0 54 201
0 52 203
0 50 205
0 48 207
0 46 209
0 44 211
0 41 214
0 35 220
0 28 227
0 65 190
0 66 189
0 67 188
0 68 187
0 73 182
0 79 176
0 80 175
0 164 91
0 250 5
149 106 0
213 42 0
253 2 0
255 0 0
222 33 0
188 67 0
0 74 181
0 74 181
0 74 181
0 74 181
0 73 182
0 73 182
0 73 182
0 72 183
0 67 188
0 59 196
0 51 204
0 43 212
0 31 224
0 0 255
239 239 239
239 239 239
239 239 239
239 239 239
239 239 239
239 239 239
239 239 239
239 239 239
239 239 239
239 239 239
239 239 239
239 239 239
239 239 239
239 239 239
239 239 239
239 239 239
239 239 239
239 239 239
239 239 239
239 239 239
239 239 239
239 239 239
239 239 239
239 239 239
239 239 239
239 239 239
239 239 239
239 239 239
239 239 239
239 239 239
239 239 239
239 239 239
239 239 239
239 239 239
239 239 239
239 239 239
239 239 239
239 239 239
239 239 239
239 239 239
239 239 239
239 239 239
239 239 239
239 239 239
239 239 239
239 239 239
239 239 239
239 239 239
239 239 239
239 239 239
239 239 239
239 239 239
239 239 239
239 239 239
239 239 239
239 239 239
239 239 239
239 239 239
239 239 239
239 239 239
239 239 239
239 239 239
239 239 239
239 239 239
239 239 239
239 239 239
239 239 239
239 239 239
239 239 239
239 239 239
239 239 239
239 239 239
239 239 239
239 239 239
239 239 239
239 239 239
239 239 239
239 239 239
239 239 239
239 239 239
239 239 239
239 239 239
239 239 239
239 239 239
239 239 239
239 239 239
239 239 239
239 239 239
239 239 239
239 239 239
239 239 239
239 239 239
239 239 239
239 239 239
239 239 239
239 239 239
239 239 239
239 239 239
239 239 239
239 239 239
239 239 239
239 239 239
239 239 239
239 239 239
239 239 239
239 239 239
239 239 239
239 239 239
239 239 239
239 239 239
239 239 239
239 239 239
239 239 239
239 239 239
239 239 239
239 239 239
239 239 239
239 239 239
239 239 239
239 239 239
239 239 239
239 239 239
239 239 239
239 239 239
239 239 239
239 239 239
239 239 239
239 239 239
239 239 239
239 239 239
239 239 239
239 239 239
239 239 239
239 239 239
239 239 239
239 239 239
239 239 239
239 239 239
239 239 239
239 239 239
239 239 239
239 239 239
239 239 239
239 239 239
239 239 239
239 239 239
239 239 239
239 239 239
239 239 239
239 239 239
239 239 239
239 239 239
239 239 239
239 239 239
239 239 239
239 239 239
239 239 239
239 239 239
239 239 239
239 239 239
239 239 239
239 239 239
239 239 239
239 239 239
239 239 239
239 239 239
239 239 239
239 239 239
239 239 239
239 239 239
239 239 239
239 239 239
239 239 239
239 239 239
239 239 239
239 239 239
239 239 239
239 239 239
239 239 239
239 239 239
239 239 239
239 239 239
239 239 239
239 239 239
239 239 239
239 239 239
239 239 239
239 239 239
239 239 239
239 239 239
239 239 239
239 239 239
239 239 239
239 239 239
239 239 239
239 239 239
239 239 239
239 239 239
239 239 239
239 239 239
239 239 239
239 239 239
239 239 239
239 239 239
239 239 239
239 239 239
239 239 239
239 239 239
239 239 239
239 239 239
239 239 239
239 239 239
239 239 239
239 239 239
239 239 239
239 239 239
239 239 239
239 239 239
239 239 239
239 239 239
239 239 239
239 239 239
239 239 239
239 239 239
239 239 239
239 239 239
239 239 239
